<svg width="512" height="512" viewBox="0 0 512 512" fill="none" xmlns="http://www.w3.org/2000/svg">
<rect width="512" height="512" fill="#E5E5E5"/>
<path d="M240.375 156H271.625C276.82 156 281 160.18 281 165.375V231H315.258C322.211 231 325.687 239.398 320.766 244.32L261.352 303.773C258.422 306.703 253.617 306.703 250.687 303.773L191.195 244.32C186.273 239.398 189.75 231 196.703 231H231V165.375C231 160.18 235.18 156 240.375 156ZM356 302.875V346.625C356 351.82 351.82 356 346.625 356H165.375C160.18 356 156 351.82 156 346.625V302.875C156 297.68 160.18 293.5 165.375 293.5H222.68L241.82 312.641C249.672 320.492 262.328 320.492 270.18 312.641L289.32 293.5H346.625C351.82 293.5 356 297.68 356 302.875ZM307.562 337.25C307.562 332.953 304.047 329.438 299.75 329.438C295.453 329.438 291.938 332.953 291.938 337.25C291.938 341.547 295.453 345.062 299.75 345.062C304.047 345.062 307.562 341.547 307.562 337.25ZM332.562 337.25C332.562 332.953 329.047 329.438 324.75 329.438C320.453 329.438 316.938 332.953 316.938 337.25C316.938 341.547 320.453 345.062 324.75 345.062C329.047 345.062 332.562 341.547 332.562 337.25Z" fill="white"/>
</svg>
