<svg width="512" height="512" viewBox="0 0 512 512" fill="none" xmlns="http://www.w3.org/2000/svg">
<rect width="512" height="512" fill="#E5E5E5"/>
<path d="M368.5 156H193.5C190.185 156 187.005 157.317 184.661 159.661C182.317 162.005 181 165.185 181 168.5V206H243.5V181H318.5V306H368.5C371.815 306 374.995 304.683 377.339 302.339C379.683 299.995 381 296.815 381 293.5V168.5C381 165.185 379.683 162.005 377.339 159.661C374.995 157.317 371.815 156 368.5 156V156ZM221.625 196.234C221.625 197.167 221.255 198.061 220.595 198.72C219.936 199.38 219.042 199.75 218.109 199.75H206.391C205.458 199.75 204.564 199.38 203.905 198.72C203.245 198.061 202.875 197.167 202.875 196.234V184.516C202.875 183.583 203.245 182.689 203.905 182.03C204.564 181.37 205.458 181 206.391 181H218.109C219.042 181 219.936 181.37 220.595 182.03C221.255 182.689 221.625 183.583 221.625 184.516V196.234ZM359.125 277.484C359.125 278.417 358.755 279.311 358.095 279.97C357.436 280.63 356.542 281 355.609 281H343.891C342.958 281 342.064 280.63 341.405 279.97C340.745 279.311 340.375 278.417 340.375 277.484V265.766C340.375 264.833 340.745 263.939 341.405 263.28C342.064 262.62 342.958 262.25 343.891 262.25H355.609C356.542 262.25 357.436 262.62 358.095 263.28C358.755 263.939 359.125 264.833 359.125 265.766V277.484ZM359.125 236.859C359.125 237.792 358.755 238.686 358.095 239.345C357.436 240.005 356.542 240.375 355.609 240.375H343.891C342.958 240.375 342.064 240.005 341.405 239.345C340.745 238.686 340.375 237.792 340.375 236.859V225.141C340.375 224.208 340.745 223.314 341.405 222.655C342.064 221.995 342.958 221.625 343.891 221.625H355.609C356.542 221.625 357.436 221.995 358.095 222.655C358.755 223.314 359.125 224.208 359.125 225.141V236.859ZM359.125 196.234C359.125 197.167 358.755 198.061 358.095 198.72C357.436 199.38 356.542 199.75 355.609 199.75H343.891C342.958 199.75 342.064 199.38 341.405 198.72C340.745 198.061 340.375 197.167 340.375 196.234V184.516C340.375 183.583 340.745 182.689 341.405 182.03C342.064 181.37 342.958 181 343.891 181H355.609C356.542 181 357.436 181.37 358.095 182.03C358.755 182.689 359.125 183.583 359.125 184.516V196.234ZM293.5 218.5H143.5C140.185 218.5 137.005 219.817 134.661 222.161C132.317 224.505 131 227.685 131 231V343.5C131 346.815 132.317 349.995 134.661 352.339C137.005 354.683 140.185 356 143.5 356H293.5C296.815 356 299.995 354.683 302.339 352.339C304.683 349.995 306 346.815 306 343.5V231C306 227.685 304.683 224.505 302.339 222.161C299.995 219.817 296.815 218.5 293.5 218.5ZM168.5 243.5C170.972 243.5 173.389 244.233 175.445 245.607C177.5 246.98 179.102 248.932 180.048 251.216C180.995 253.501 181.242 256.014 180.76 258.439C180.278 260.863 179.087 263.091 177.339 264.839C175.591 266.587 173.363 267.778 170.939 268.26C168.514 268.742 166.001 268.495 163.716 267.548C161.432 266.602 159.48 265 158.107 262.945C156.733 260.889 156 258.472 156 256C156 252.685 157.317 249.505 159.661 247.161C162.005 244.817 165.185 243.5 168.5 243.5V243.5ZM281 331H156V318.5L181 293.5L193.5 306L243.5 256L281 293.5V331Z" fill="white"/>
</svg>
