<?xml version="1.0" standalone="no"?>
<!DOCTYPE svg PUBLIC "-//W3C//DTD SVG 20010904//EN"
 "http://www.w3.org/TR/2001/REC-SVG-20010904/DTD/svg10.dtd">
<svg version="1.0" xmlns="http://www.w3.org/2000/svg"
 width="260.000000pt" height="260.000000pt" viewBox="0 0 260.000000 260.000000"
 preserveAspectRatio="xMidYMid meet">
<metadata>
Created by potrace 1.11, written by Peter Selinger 2001-2013
</metadata>
<g transform="translate(0.000000,260.000000) scale(0.100000,-0.100000)"
fill="#000000" stroke="none">
<path d="M277 2570 c-91 -16 -178 -86 -221 -179 -21 -46 -21 -50 -21 -1081 0
-996 1 -1037 19 -1085 25 -65 94 -137 159 -166 l52 -24 1040 0 1040 0 46 21
c63 29 120 83 149 141 l25 48 3 1050 2 1050 -30 62 c-35 70 -71 105 -150 142
l-55 26 -1005 1 c-553 1 -1026 -2 -1053 -6z m2013 -200 c25 -25 25 -35 0 -60
-15 -15 -25 -17 -42 -11 -30 11 -37 60 -12 78 24 17 30 17 54 -7z m-1326 -134
c49 -20 76 -60 76 -113 0 -38 -5 -50 -34 -79 -28 -28 -42 -34 -75 -34 -77 0
-131 51 -131 122 0 35 37 88 73 103 41 18 50 18 91 1z m968 -93 c37 -33 15
-93 -36 -93 -40 0 -59 59 -29 92 20 22 41 23 65 1z m-238 -334 c50 -39 22
-122 -42 -122 -69 0 -99 80 -46 122 15 12 34 21 44 21 10 0 29 -9 44 -21z
m-581 -18 c72 -28 92 -118 38 -172 -65 -65 -171 -20 -171 73 1 49 14 71 56 93
34 17 44 18 77 6z m452 -361 c15 -6 32 -24 41 -46 14 -32 13 -39 -3 -72 -42
-84 -164 -56 -163 37 1 70 58 107 125 81z m-455 -145 c77 -82 -43 -202 -125
-125 -33 31 -35 93 -3 127 31 33 96 32 128 -2z m457 -310 c33 -38 31 -96 -5
-136 -61 -68 -172 -24 -172 69 0 42 21 79 54 93 37 16 99 3 123 -26z m-599
-101 c27 -19 30 -78 5 -106 -22 -24 -77 -24 -103 2 -61 61 27 154 98 104z
m750 -310 c32 -21 55 -79 48 -119 -20 -103 -174 -126 -222 -33 -56 109 70 220
174 152z m-1006 -61 c22 -20 23 -41 1 -65 -18 -20 -63 -24 -81 -6 -15 15 -15
61 0 76 17 17 58 15 80 -5z m-368 -239 c32 -31 7 -78 -38 -72 -36 4 -51 37
-30 67 18 25 46 27 68 5z"/>
</g>
</svg>
