<!DOCTYPE svg PUBLIC "-//W3C//DTD SVG 1.1//EN" "http://www.w3.org/Graphics/SVG/1.1/DTD/svg11.dtd">
<svg version="1.1" id="svg2403" xmlns="http://www.w3.org/2000/svg" xmlns:xlink="http://www.w3.org/1999/xlink" x="0px" y="0px"
	 viewBox="0 330.9 595.3 181" enable-background="new 0 330.9 595.3 181" xml:space="preserve">
<polygon fill="#22539F" points="200.6,443.7 199.3,444.1 198,444.5 196.8,444.8 195.9,445.6 195,446.3 194.2,447.3 193.6,448.2 
	192.9,449.3 192.3,450.5 191.9,451.6 191.8,452.9 191.4,454 191.2,455.2 191,457.2 188,485.8 175.4,485.8 180.7,434.1 193.3,434.1 
	192.5,441.4 192.5,441.4 192.5,441.4 192.5,441.4 192.7,440.9 192.9,440.3 193.4,439.6 194,438.6 194.8,437.5 195.5,436.6 
	196.6,435.4 197.4,434.9 198.1,434.5 198.9,433.9 199.8,433.7 200.6,433.4 201.3,433.2 202.3,433.2 203,433 204,433.2 204.9,433.2 
	205.7,433.4 206.6,433.7 207.2,434.1 207.7,434.3 208.7,435.1 209.1,435.4 209.2,435.6 209.2,435.6 209.2,435.6 209.2,435.6 
	209.8,446.5 208.3,445.6 207.6,445 206.8,444.6 205.7,444.3 204.5,443.9 203.4,443.7 201.9,443.7 200.6,443.7 "/>
<polygon fill="#22539F" points="216.2,416.2 229,416.2 221.7,484.9 209.1,484.9 "/>
<polygon fill="#22539F" points="340.5,485.1 339.6,485.1 339.2,484.9 338.6,484.7 338.3,484.5 337.7,484.1 337.3,483.6 337.1,483.2 
	337,482.6 337,482.1 337,481.1 337,480.6 337.3,478.1 336.6,479.1 336,480 335.3,480.8 334.5,481.5 333.6,482.1 332.8,482.8 
	331.9,483.4 330.9,483.8 330,484.3 329.1,484.7 327.9,485.1 327,485.3 325.9,485.6 324.7,485.8 323.8,485.8 322.7,485.8 
	320.8,485.8 319.1,485.6 317.6,485.1 316.1,484.5 315.3,484.1 314.8,483.8 314,483.4 313.4,482.8 312.9,482.3 312.3,481.7 
	311.7,481.1 311.2,480.4 310.8,479.6 310.4,478.9 309.9,477.4 309.5,475.7 309.3,474 309.1,472.3 309.1,470.4 309.3,468.3 
	309.5,466.3 312.9,434.1 325.7,434.1 322.3,466.3 321.9,468.5 321.9,469.7 321.9,470.6 322.1,471.5 322.3,472.7 322.8,473.6 
	323.4,474.5 323.8,474.9 324.4,475.5 324.9,475.7 325.5,476.1 326,476.2 326.8,476.4 328.3,476.4 329.1,476.4 329.8,476.2 
	330.6,476.1 331.3,475.9 332.1,475.7 332.8,475.3 333.6,474.9 334.1,474.4 334.9,473.8 335.4,473.2 336,472.7 336.4,471.9 
	336.8,471.2 337.1,470.4 337.3,469.5 337.5,468.5 341.1,434.1 353.9,434.1 348.4,485.1 341.5,485.1 340.5,485.1 "/>
<path fill="#22539F" d="M368.4,427.5l-1.3-0.2l-1.3-0.2l-0.6-0.2l-0.6-0.2l-0.6-0.4l-0.6-0.2l-0.4-0.6l-0.4-0.4l-0.4-0.6l-0.2-0.6
	l-0.2-0.6l-0.2-0.7v-0.8v-0.7l0.2-0.8l0.2-0.8l0.2-0.6l0.4-0.6l0.4-0.6l0.4-0.4l0.6-0.6l0.6-0.4l0.4-0.4l0.8-0.2l0.6-0.4l0.6-0.2
	l1.5-0.4h1.3h0.8h0.8l0.7,0.2l0.6,0.2l0.6,0.4l0.6,0.2l0.6,0.4l0.6,0.4l0.4,0.4l0.4,0.4l0.2,0.6l0.2,0.6l0.2,0.6l0.2,0.6v0.6v0.8
	l-0.2,0.6v0.6l-0.4,0.8l-0.2,0.6l-0.4,0.6l-0.4,0.4l-0.4,0.6l-0.4,0.4l-0.6,0.4l-0.6,0.4l-0.8,0.4l-0.6,0.2l-0.8,0.2l-0.8,0.2
	l-0.7,0.2L368.4,427.5L368.4,427.5L368.4,427.5z M355.9,485.8l5.3-51.5h12.6l-5.3,51.5H355.9z"/>
<polygon fill="#22539F" points="402.4,482.3 400.7,483 399,484 397.3,484.5 395.4,485.1 393.6,485.5 391.7,485.8 389.6,485.8 
	388.3,485.8 385.5,485.8 383.2,485.5 381.2,485.3 379.3,484.7 378,484.3 376.8,483.8 375.9,483.4 375.3,483 374.9,471.7 
	374.9,471.7 374.9,471.7 375.1,471.7 375.3,471.9 376.1,472.5 377.4,473.2 379.1,474 381,474.9 382.1,475.3 383.2,475.5 
	384.3,475.9 385.5,476.1 386.8,476.2 387.9,476.2 389.8,476.2 390.6,476.1 391.3,475.9 392.1,475.7 392.8,475.5 393.4,475.1 
	393.9,474.7 394.3,474.4 394.7,474 395.1,473.4 395.5,473 395.8,472.3 396,471.7 396.2,471 396.2,470.2 396.2,469.5 396.2,468.7 
	396,468.2 395.6,467.4 395.3,466.8 394.7,466.3 394.1,465.7 393.6,465.3 392.1,464.4 390.6,463.5 387,461.6 385.1,460.6 
	383.4,459.5 382.7,458.8 381.9,458.2 381.2,457.4 380.4,456.7 379.8,455.7 379.3,454.8 378.9,453.9 378.5,452.7 378.3,451.6 
	378.1,450.3 378.1,449 378.3,447.5 378.5,445.8 379.1,444.1 379.6,442.6 380.2,441.3 381.2,439.9 382.1,438.8 383.2,437.7 
	384.4,436.7 385.7,436 387,435.2 388.3,434.5 389.8,434.1 391.5,433.5 393,433.4 394.7,433.2 396.4,433 397,433 398.6,433.2 
	400.2,433.2 401.5,433.4 402.8,433.5 403.9,433.9 404.9,434.1 406.5,434.9 408.1,435.4 409,436 409.6,436.4 409.6,436.6 
	409.7,436.6 409.7,436.6 410.3,446.2 410.3,446.2 410.1,446 409.6,445.6 408.8,444.8 407.5,444.1 406,443.3 405,443 404.1,442.8 
	403,442.4 401.8,442.2 400.5,442.2 399.2,442 398.8,442 397.3,442.2 396,442.6 395.3,442.8 394.7,443 394.1,443.3 393.6,443.5 
	393.2,443.9 392.8,444.5 392.4,444.8 392.1,445.4 391.9,446 391.5,446.5 391.5,447.3 391.3,447.8 391.3,448.6 391.3,449.3 
	391.7,449.9 391.9,450.5 392.2,451 392.8,451.6 393.4,452.2 393.9,452.7 395.3,453.5 396.8,454.4 400,455.9 402,457.1 404.1,458.4 
	405,458.9 405.8,459.7 406.5,460.4 407.3,461.2 408.1,462.1 408.6,463.1 409.2,464 409.6,465.1 409.7,466.3 409.9,467.6 
	409.9,468.9 409.9,470.2 409.6,471.9 409.2,473.6 408.6,475.1 407.9,476.6 407.1,477.9 406.2,479.1 405,480.2 403.9,481.1 "/>
<path fill="#22539F" d="M439.3,442.2L439.3,442.2l-1.3,0.2l-1.1,0.2l-0.9,0.4l-0.9,0.4l-0.7,0.6l-0.8,0.6l-0.8,0.7l-0.6,0.8
	l-0.6,0.7l-0.4,0.9l-0.4,0.9l-0.2,0.8l-0.6,1.9l-0.2,1.9l-2.1,19.9l0,0l0,0l0.2,0.2l0.4,0.4l0.8,0.4l1.1,0.6l1.1,0.6l1.3,0.4
	l1.5,0.4h0.7h0.8h0.9l0.9-0.2l0.9-0.2l0.8-0.2l0.9-0.6l0.7-0.6l0.9-0.8l0.7-0.8l0.8-1.1l0.6-1.1l0.8-1.3l0.6-1.7l0.6-1.7l0.6-2.1
	l0.4-2.1l0.4-2.4v-0.9l0.2-1.7V455v-1.5V452l-0.2-1.5l-0.2-1.3l-0.4-1.1l-0.4-1.1l-0.6-0.9l-0.6-0.9l-0.6-0.8l-0.9-0.8l-0.9-0.6
	l-0.9-0.4l-1.1-0.2L439.3,442.2z M439.3,485.8h-1.1h-0.9l-1.1-0.2l-0.9-0.2l-0.9-0.4l-0.8-0.2l-0.8-0.4l-0.9-0.6l-1.3-0.8l-1.3-1.1
	l-1.1-1.1l-1.1-1.3l-0.6,5.3h-12.2l7.1-68.7H434l-2.4,22.8l0,0l0,0l0,0l0.2-0.2l0.6-0.8l0.9-0.9l0.6-0.6l0.8-0.8l0.8-0.6l0.9-0.6
	l0.9-0.6l1.1-0.4l1.3-0.4l1.3-0.4l1.5-0.2l1.5-0.2l2.1,0.2h0.9l0.9,0.2l0.9,0.2l0.9,0.4l0.9,0.4l0.9,0.4l0.8,0.4l0.8,0.4l0.6,0.6
	l0.8,0.6l1.1,1.1l1.1,1.1l0.9,1.5l0.8,1.5l0.6,1.5l0.6,1.7l0.6,1.7l0.2,1.9l0.4,1.9v1.7l0.2,1.9l-0.2,1.9v1.9l-0.2,1.9l-0.4,2.3
	l-0.4,2.4l-0.6,2.4l-0.8,2.3l-0.8,2.3l-1.1,2.3l-1.1,2.1l-1.1,2.1l-1.5,1.7l-0.7,0.9l-0.8,0.8l-0.8,0.8l-0.9,0.8l-0.8,0.6l-0.9,0.8
	L447,484l-1.1,0.6l-0.9,0.4l-1.1,0.4l-0.9,0.2l-1.1,0.2l-1.3,0.2L439.3,485.8L439.3,485.8z"/>
<polygon fill="#22539F" points="532.7,443.7 531.4,443.9 530.1,444.5 529,444.8 528,445.6 527.1,446.3 526.3,447.3 525.8,448.2 
	525,449.3 524.5,450.5 524.1,451.6 523.7,452.9 523.5,454 523.3,455.2 523.1,457.1 520.1,485.8 507.5,485.8 512.8,434.1 
	525.4,434.1 524.7,441.4 524.7,441.4 524.7,441.4 524.7,441.3 524.8,440.9 525,440.3 525.6,439.6 526.2,438.6 526.9,437.5 
	527.7,436.6 528.8,435.4 529.5,434.9 530.3,434.5 531,433.9 532,433.7 532.7,433.4 533.5,433.2 534.4,433.2 535.2,433 536.1,433.2 
	537.1,433.2 537.8,433.4 538.8,433.7 539.3,434.1 539.9,434.3 540.8,435.1 541.2,435.4 541.4,435.6 541.4,435.6 541.4,435.6 
	541.4,435.6 541.8,446.5 540.5,445.6 539.7,445 538.8,444.6 537.8,444.3 536.7,443.9 535.6,443.7 534.1,443.7 532.7,443.7 "/>
<path fill="#22539F" d="M570.2,453.3l0.2-2.1v-1.1V449l-0.2-1.1l-0.4-1.1l-0.6-0.9l-0.6-0.9l-0.6-0.6l-0.6-0.6l-0.6-0.4l-0.8-0.4
	l-0.8-0.4l-0.8-0.2l-0.7-0.2h-1.1h-0.6l-0.7,0.2h-0.8l-0.6,0.2l-0.6,0.4l-0.6,0.2l-1.1,0.8l-0.9,0.8l-0.7,1.1l-0.8,1.1l-0.8,1.1
	l-0.6,1.3l-0.6,1.5l-0.4,1.5l-0.4,1.5l-0.4,1.5l-0.2,1.5l-0.4,3l-0.2,1.9l-0.2,1.7v1.7l0.2,1.3l0.2,1.3l0.2,1.1l0.4,1.1l0.4,0.7
	l0.6,0.9l0.6,0.6l0.8,0.6l0.8,0.4l0.9,0.4l0.9,0.2l1.1,0.2h1.1h1.3l1.3-0.2l1.3-0.4l1.1-0.6l0.8-0.4l0.8-0.6l1.3-0.9l0.7-0.6
	l0.2-0.4l0,0l0,0l0,0L570.2,453.3z M552.5,503.7h-1.9h-1.5l-1.5-0.2l-1.3-0.2l-2.4-0.6l-2.1-0.6l-1.7-0.8l-1.3-0.6l-1.5-0.8
	l-0.2-10.5l1.3,0.9l1.1,0.8l1.5,0.8l0.8,0.4l1.1,0.4l0.9,0.2l1.1,0.4l1.3,0.2l1.3,0.2l1.5,0.2h1.7l2.3-0.2l2.1-0.2l1.9-0.2l1.7-0.6
	l1.5-0.6l1.3-0.6l1.3-0.8l0.9-0.8l0.9-0.9l0.8-0.9l0.6-0.9l0.6-0.9l0.4-0.9l0.2-1.1l0.2-1.1l0.2-0.9l0.2-1.7l0.4-2.8l-1.3,1.3
	l-1.5,1.1l-1.3,0.9l-1.7,0.9l-1.7,0.8l-0.7,0.4l-0.9,0.2l-0.9,0.2l-0.9,0.2l-0.9,0.2h-1.1h-1.3h-1.1l-1.3-0.2l-1.1-0.2l-0.9-0.2
	l-1.1-0.2l-0.9-0.4l-0.8-0.6l-0.9-0.4l-0.8-0.6l-0.8-0.6l-0.7-0.6l-0.6-0.8l-0.8-0.6l-0.4-0.8l-0.6-0.9l-0.6-0.8l-0.4-0.9l-0.8-1.9
	l-0.4-1.9l-0.4-2.3l-0.4-2.3v-2.3v-2.4l0.2-2.4l0.4-2.3l0.4-2.4l0.6-2.4l0.7-2.3l0.8-2.4l0.9-2.3l1.1-2.1l1.3-2.1l0.6-0.9l0.7-0.9
	l0.8-0.9l0.9-0.8l0.8-0.8l0.9-0.7l0.9-0.8l0.9-0.6l0.9-0.6l1.1-0.6l1.1-0.4l1.1-0.4l1.1-0.4l1.3-0.2h1.1l1.3-0.2l1.7,0.2l1.5,0.2
	l1.5,0.4l1.1,0.4l1.1,0.4l0.9,0.6l0.7,0.6l0.8,0.6l0.6,0.6l0.4,0.6l0.7,0.9l0.4,0.8v0.2v0.2l0,0l0,0l0.6-5.1H585l-4.9,46.8l-0.2,1.5
	l-0.4,1.3l-0.2,1.3l-0.4,1.3l-0.4,1.3l-0.4,1.1l-0.4,1.1l-0.6,1.1l-0.6,1.1l-0.6,0.9l-0.8,0.9l-0.6,0.9l-0.7,0.9l-0.8,0.8l-0.9,0.8
	l-0.7,0.8l-0.9,0.6l-0.9,0.8l-1.1,0.6l-0.9,0.6l-1.1,0.4l-1.1,0.6l-1.1,0.4l-1.1,0.4l-2.4,0.6l-2.6,0.4l-2.8,0.4L552.5,503.7
	L552.5,503.7L552.5,503.7z"/>
<path fill="#22539F" d="M153.2,442.2h-0.6l-1.1,0.2l-1.1,0.4l-1.1,0.4l-1.1,0.8l-0.9,0.8l-0.8,0.9l-0.8,1.1l-0.8,1.1l-0.8,1.3
	l-0.6,1.5l-0.6,1.5l-0.4,1.5l-0.4,1.7l-0.4,1.7l-0.2,1.9l-0.2,1.9v1.7v1.7v1.5l0.2,1.3l0.2,2.1l0.4,1.7l0.6,1.3l0.6,1.3l0.4,0.4
	l0.4,0.6l0.4,0.4l0.4,0.4l0.4,0.2l0.6,0.2l0.4,0.2h0.6h0.4h0.6h0.6l0.4-0.2l0.6-0.4l0.6-0.4l0.6-0.4l0.9-0.9l0.9-1.1l0.9-1.5
	l0.9-1.5l0.8-1.9l0.9-1.9l0.8-2.1l0.6-2.1l0.8-2.3l0.6-2.4l0.6-2.3l0.4-2.4l0.4-2.4l0.4-3.2L160,446l-0.4-0.6l-0.6-0.6l-0.6-0.7
	l-0.9-0.8l-0.6-0.2l-0.8-0.4l-0.6-0.2l-0.8-0.2l-0.8-0.2L153.2,442.2L153.2,442.2L153.2,442.2z M168.2,485.5h-12l2.1-17.1l0,0v0.2
	l0,0l-0.2,0.6l-0.6,2.1l-0.6,1.3l-0.6,1.5l-0.8,1.5l-0.9,1.7l-0.9,1.5l-1.1,1.7l-1.3,1.3l-0.6,0.8L150,483l-0.8,0.6l-0.9,0.6
	l-0.8,0.6l-0.9,0.4l-0.9,0.4l-0.9,0.2l-0.9,0.2h-1.1h-0.9l-1.7-0.2l-1.3-0.6l-1.3-0.6l-1.3-0.8l-1.1-0.9l-0.9-0.9l-0.9-1.1l-0.8-1.3
	l-0.8-1.3l-0.6-1.5l-0.6-1.5l-0.6-1.5l-0.4-1.5l-0.2-1.7l-0.4-1.7l-0.2-1.5l-0.2-2.3v-2.1v-2.1v-1.9l0.4-2.4l0.4-2.4l0.6-2.4
	l0.8-2.3l0.8-2.3l0.9-2.1l1.1-1.9l1.1-1.9l1.3-1.7l1.5-1.5l1.5-1.3l1.5-1.1l0.9-0.4l0.7-0.6l0.9-0.4l0.9-0.4l0.9-0.4l0.9-0.2
	l1.1-0.2l0.9-0.2h1.5l1.5,0.2l1.3,0.2l1.3,0.2l1.1,0.4l0.9,0.6l0.9,0.6l0.8,0.4l0.8,0.8l0.7,0.4l0.6,0.6l0.8,1.1l0.6,0.6l0.2,0.2
	l0,0v0.2l0,0l0,0V439l0,0v-0.2l0.2-0.9l0.2-1.1v-0.6l0.2-0.4l0.2-0.4l0.4-0.2l0.2-0.4l0.4-0.2l0.2-0.2l0.4-0.2h0.6h0.4h9.6
	L168.2,485.5z"/>
<path fill="#22539F" d="M489.5,441.4h-0.4h-0.7l-0.8,0.2l-0.8,0.2l-0.8,0.2l-0.7,0.4l-0.6,0.4l-0.6,0.4l-0.6,0.6l-0.9,0.9l-0.9,1.3
	l-0.8,1.3l-0.6,1.3l-0.6,1.3l-0.4,1.1l-0.4,1.3l-0.2,1.1l-0.4,1.5v0.4v0.2l0,0l0,0l12.6-1.1l0.9-0.2l0.8-0.2l0.6-0.4l0.6-0.4
	l0.6-0.6l0.2-0.4l0.2-0.6l0.2-0.4v-0.6l0.2-1.1l0.2-1.1l-0.2-1.5l-0.4-1.3l-0.6-1.1l-0.2-0.6l-0.4-0.6l-0.4-0.4l-0.6-0.4l-0.4-0.4
	l-0.6-0.4l-0.6-0.2l-0.6-0.2l-0.6-0.2L489.5,441.4L489.5,441.4z M505.7,453.9l-0.4,0.9l-0.2,0.9l-0.4,0.8l-0.6,0.8l-0.6,0.6
	l-0.6,0.6l-0.6,0.6l-0.6,0.6l-0.8,0.4l-0.8,0.4l-0.7,0.2l-0.8,0.2l-1.5,0.4l-1.7,0.2l-17.7,1.5l0,0l0,0l-0.2,0.2v0.4v1.9l0.2,1.3
	l0.2,1.5l0.2,0.7l0.4,0.8l0.4,0.8l0.4,0.8l0.6,0.8l0.6,0.7l0.7,0.6l0.8,0.8l0.9,0.6l0.9,0.4l1.1,0.4l1.3,0.4l1.7,0.2h1.7h1.3
	l1.3-0.2l1.1-0.2l1.1-0.2l1.1-0.4l0.9-0.4l1.7-0.8l1.3-0.9l0.9-0.6l0.8-0.6v-0.2h0.2l0,0l0,0L500,480l-0.2,0.9l-0.2,0.2l-0.2,0.4
	l-0.6,0.4l-0.6,0.4l-0.4,0.4l-0.8,0.4l-0.9,0.6l-1.3,0.6l-1.5,0.6l-1.9,0.6l-0.9,0.2h-1.1l-1.1,0.2H487h-1.1l-1.3-0.2l-2.6-0.2
	l-1.7-0.4l-1.7-0.6l-1.7-0.7l-1.5-0.9l-1.5-0.9l-1.3-1.1l-1.3-1.3l-1.1-1.3l-1.1-1.5l-0.8-1.5l-0.9-1.7l-0.6-1.9l-0.6-1.7l-0.6-2.1
	l-0.2-1.9l-0.2-2.3v-1.3v-1.3l0.4-2.6l0.2-1.5l0.2-1.7l0.4-1.3l0.4-1.5l0.6-1.3l0.4-1.5l0.6-1.1l0.6-1.3l0.6-1.1l0.7-1.1l0.6-1.1
	l0.8-0.9l0.8-0.9l0.8-0.9l0.7-0.9l0.8-0.8l1.7-1.5l1.7-1.3l1.9-1.1l1.9-0.8l1.9-0.8l1.9-0.6l2.1-0.2l1.9-0.2h1.1l1.3,0.2l1.7,0.4
	l1.7,0.4l1.5,0.6l1.5,0.8l1.3,0.8l1.1,0.9l1.1,1.1l0.8,0.9l0.9,1.1l0.8,1.3l0.6,1.3l0.4,1.1l0.4,1.3l0.4,1.5l0.2,1.3v1.3l0.2,1.3
	l-0.2,1.1l-0.2,1.1L505.7,453.9z"/>
<polygon fill="#22539F" points="119.3,427.5 118.2,427.5 117.1,427.7 116,427.7 115,427.9 113.9,428.3 112.9,428.5 112,428.8 
	111.1,429.4 110.1,429.8 109.2,430.3 108.4,430.9 107.7,431.5 106.7,432 106,432.8 104.7,434.3 103.4,435.8 102.2,437.7 
	101.3,439.6 100.3,441.6 99.6,443.7 98.8,446 98.3,448.4 97.9,450.7 97.7,452.5 97.5,454.2 97.5,455.7 97.5,457.2 97.5,459.1 
	97.9,460.6 98.1,462.3 98.7,463.8 99.2,465.1 99.8,466.3 100.5,467.4 101.3,468.5 102.2,469.5 103.2,470.2 104.3,471 105.4,471.7 
	106.6,472.3 107.7,472.7 109,473 110.3,473.4 111.3,473.6 112.2,473.6 114.1,473.8 115.4,473.8 116.7,473.6 118,473.4 119.2,473 
	120.3,472.7 121.2,472.3 123.1,471.5 124.6,470.8 125.7,470 126.5,469.5 126.7,469.3 126.7,469.3 120.7,482.6 120.7,482.6 
	120.7,482.8 120.7,482.8 120.5,482.8 119.7,483.2 118.8,483.8 117.3,484.3 115.6,484.9 113.5,485.3 112.4,485.5 111.1,485.6 
	109.8,485.8 108.4,485.8 106.6,485.8 104.5,485.6 103.2,485.3 101.9,485.1 100.7,484.7 99.6,484.3 98.5,484 97.3,483.4 96.2,483 
	95.3,482.5 94.3,481.7 93.4,481.1 92.4,480.4 91.5,479.6 90.8,478.9 90,477.9 88.5,476.2 87.4,474.2 86.2,472.3 85.3,470 
	84.5,467.8 83.8,465.3 83.4,462.9 83,460.4 82.9,457.8 82.9,455.7 82.9,453.5 83,451.4 83.4,449.2 83.8,447.1 84.4,444.8 
	85.1,442.2 86,439.6 87.2,436.9 88.5,434.1 89.3,432.8 90.2,431.3 90.9,430 92.1,428.7 93,427.3 94.1,426.2 95.3,424.9 96.6,423.8 
	97.9,422.6 99.4,421.7 100.9,420.6 102.4,419.8 104.1,418.9 105.8,418.1 107.7,417.6 109.6,417 111.6,416.6 113.7,416.2 116,416.2 
	118.2,416.1 119.7,416.1 121,416.2 122.4,416.4 123.5,416.6 125.5,417 127.2,417.6 128.6,418.1 129.5,418.5 130.1,418.9 
	130.3,418.9 130.3,418.9 130.3,418.9 130.3,418.9 130.6,431.3 130.6,431.3 130.6,431.3 130.6,431.3 130.1,430.7 129.3,430.2 
	128.2,429.6 126.7,428.8 125.9,428.5 124.8,428.3 123.9,427.9 122.7,427.7 121.4,427.5 120.1,427.5 119.3,427.5 "/>
<path fill="#22539F" d="M276.8,427h-6l-4.9,47.2h5.8l1.3-0.2l0.9-0.2l1.1-0.2l1.3-0.4l1.5-0.6l1.5-0.8l1.5-0.9l0.8-0.6l0.8-0.8
	l0.8-0.8l0.8-0.7l0.6-0.9l0.8-0.9l0.6-1.1l0.6-1.1l0.6-1.3l0.6-1.3l0.6-1.5l0.4-1.5l0.4-1.7l0.2-1.9l0.2-1.9l0.2-2.1V449v-2.1v-1.7
	l-0.2-1.7l-0.2-2.3l-0.6-2.3l-0.6-1.9l-0.6-1.7l-0.7-1.5l-0.9-1.5l-0.8-1.1l-0.9-0.9l-0.9-0.9l-0.9-0.7l-0.9-0.6l-0.9-0.4l-0.9-0.4
	l-0.9-0.2l-0.8-0.2L276.8,427L276.8,427z M303.9,454l-0.2,2.6l-0.6,2.6l-0.6,2.6l-0.6,2.3l-0.8,2.1l-0.9,2.1l-0.9,1.9l-0.9,1.7
	l-1.1,1.7l-1.1,1.3l-1.1,1.5l-1.1,1.1l-1.3,1.1l-1.3,1.1l-1.3,0.8l-1.3,0.9l-1.5,0.8l-1.3,0.6l-1.3,0.6l-1.3,0.6l-1.3,0.4l-1.3,0.4
	l-2.4,0.6l-2.3,0.2l-2.1,0.2l-1.7,0.2h-1.3h-20.5l6.8-69.6h20.1h2.4l2.4,0.4l1.3,0.2l1.1,0.4l1.1,0.2l1.1,0.4l1.1,0.6l1.1,0.4
	l0.9,0.6l1.1,0.6l0.9,0.8l0.9,0.6l0.9,0.8l0.9,0.7l0.9,0.9l0.8,0.9l0.8,0.9l0.9,0.9l0.6,1.1l0.8,1.1l0.6,1.1l0.8,1.1l0.6,1.3
	l0.4,1.3l0.6,1.5l0.4,1.3l0.4,1.5l0.4,1.5l0.2,1.7l0.2,1.7l0.2,2.6l0.2,2.8L304,451L303.9,454z"/>
<polygon fill="#22539F" points="286.4,383.3 283.9,381.5 281.1,379.8 278.3,377.9 275.3,376.2 272.1,374.5 268.7,372.8 265.5,371.3 
	260.2,369 255.3,367.2 250.1,365.3 244.8,363.4 238.8,361.7 232.9,360 226.9,358.5 220.9,357 214.1,355.7 207.2,354.6 200.2,353.4 
	193.1,352.7 186.1,351.9 179,351.2 171.8,350.8 164.7,350.4 157.5,350.2 150.4,350.2 143.2,350.4 136.1,350.6 129.1,351.2 
	122,351.7 118.4,352.1 114.8,352.7 111.4,353 107.9,353.6 104.7,354.2 101.3,354.9 98.1,355.7 94.9,356.4 91.7,357.4 88.5,358.5 
	85.5,359.6 82.3,361 79.8,362.1 77.4,363.4 75.1,364.7 74,365.5 72.9,366.4 71.8,367.2 70.8,368.1 69.9,369 68.9,370.2 68.2,371.3 
	67.4,372.4 66.7,373.6 66.1,374.9 65.5,376.6 65,378.1 64.4,379.8 64,381.6 63.5,385.2 62.9,388.8 62.4,392.5 61.8,396.1 
	60.8,403.6 57.7,427.7 60.3,425.5 62.7,423.4 65.4,421.3 68,419.4 70.6,417.6 73.5,415.7 76.1,413.8 78.9,412.1 81.7,410.2 
	84.5,408.7 87.4,407 90.2,405.5 93.2,403.8 96,402.5 102,399.7 105.2,398.2 108.2,396.9 114.6,394.2 121.2,391.8 124.4,390.7 
	127.6,389.7 134.2,387.7 140.8,385.8 147.6,384.1 154.1,382.6 161.3,381.3 168.2,380.1 175.4,379 182.3,378.3 189.5,377.7 
	196.6,377.1 203.8,376.9 210.7,376.7 217.9,376.9 225,377.1 232,377.5 239.1,378.3 246.1,379 253.3,379.9 260.2,381.1 267.2,382.4 
	271.1,383.3 275.3,384.3 279.4,385.4 283.3,386.3 287.3,387.5 291.1,388.6 291.6,388.8 291.8,388.8 291.8,388.8 292,388.8 
	291.8,388.4 291.6,388.2 291.2,387.7 290.1,386.5 289,385.4 "/>
<polygon fill="#6696CF" points="143.8,338.9 136.6,338.6 129.5,338.2 122.4,338.2 115.2,338.2 108.1,338.2 100.9,338.6 93.8,338.9 
	87,339.5 80.2,340.1 73.5,340.8 66.7,341.8 60.7,342.9 57.5,343.5 54.5,344 51.4,344.8 48.4,345.5 45.4,346.3 42.4,347.2 40,348 
	37.5,348.9 35.1,349.9 32.8,351 30.2,352.1 27.7,353.4 26.6,354.2 25.5,354.9 24.4,355.7 23.2,356.6 22.3,357.4 21.5,358.1 
	20.6,359.1 20,360 19.3,361 18.5,361.9 18,362.8 17.6,364 17,365.3 16.5,366.8 16.1,368.3 15.9,369.8 15.3,372.8 15,375.6 
	13.6,383.7 12.5,391.8 10.3,408 13.1,406.3 16.1,404.8 22.1,401.6 28.1,398.8 34.3,395.9 40.9,393.3 47.5,390.7 54.1,388.4 
	57.3,387.3 57.7,387.1 57.8,386.9 57.8,386.7 58,386 58.2,384.1 59,380.7 59.2,379 59.7,377.3 60.1,375.6 60.7,373.9 61.4,372.4 
	62.2,370.9 62.7,369.6 63.7,368.5 64.4,367.3 65.4,366.2 66.3,365.3 67.4,364.1 68.4,363.4 69.5,362.5 70.8,361.5 72.1,360.8 
	73.5,359.8 74.8,359.1 77.6,357.8 80.4,356.6 83.2,355.5 86.2,354.6 89.3,353.6 92.1,352.7 95.1,351.9 98.3,351.2 101.3,350.4 
	104.5,349.9 107.5,349.3 110.7,348.9 116.9,348 123.3,347.2 129.7,346.7 136.1,346.3 142.5,346.1 149.6,345.9 156.8,346.1 
	163.9,346.3 170.9,346.5 178,347 185.2,347.6 192.3,348.3 199.3,349.3 204.5,350 209.6,351 220,352.9 220.3,352.9 220.3,352.9 
	220.3,352.9 220.3,352.9 220.3,352.7 220,352.5 213.6,350.6 207.4,348.9 200.8,347.2 194.4,345.7 187.8,344.4 181.2,343.1 
	174.6,342.1 167.9,341.2 163.7,340.6 159.4,340.3 150.9,339.5 "/>
</svg>
