<?xml version="1.0" encoding="utf-8"?>
<!-- Generator: Adobe Illustrator 21.1.0, SVG Export Plug-In . SVG Version: 6.00 Build 0)  -->
<svg version="1.1" xmlns="http://www.w3.org/2000/svg" xmlns:xlink="http://www.w3.org/1999/xlink" x="0px" y="0px"
	 viewBox="0 0 1417.3 1417.3" style="enable-background:new 0 0 1417.3 1417.3;" xml:space="preserve">
<style type="text/css">
	.st0{fill:#203C7A;stroke:#000000;stroke-width:1.0084;stroke-miterlimit:10;}
	.st1{fill:#FFFFFF;}
</style>
<g id="Ebene_1">
	<rect x="0.8" y="1.3" class="st0" width="1417.3" height="1417.3"/>
</g>
<g id="Ebene_2">
	<polygon class="st1" points="1347.8,715.9 1336.2,707.5 1323.1,699.6 1310,690.7 1296,682.8 1281.1,674.8 1265.2,666.9 
		1250.2,659.9 1225.5,649.2 1202.6,640.7 1178.3,631.9 1153.5,623 1125.5,615.1 1098,607.1 1069.9,600.1 1041.9,593.1 1010.2,587 
		977.9,581.9 945.2,576.3 912.1,573 879.4,569.3 846.2,566 812.6,564.1 779.4,562.3 745.8,561.3 712.6,561.3 679,562.3 645.9,563.2 
		613.2,566 580,568.4 563.2,570.2 546.4,573 530.5,574.4 514.1,577.2 499.2,580 483.3,583.3 468.4,587 453.4,590.3 438.5,595 
		423.5,600.1 409.5,605.3 394.6,611.8 382.9,616.9 371.7,623 361,629.1 355.8,632.8 350.7,637 345.5,640.7 340.9,645 336.7,649.2 
		332,654.8 328.7,659.9 325,665 321.7,670.6 318.9,676.7 316.1,684.6 313.8,691.7 311,699.6 309.1,708 306.8,724.8 304,741.6 
		301.6,758.9 298.8,775.7 294.2,810.8 279.7,923.3 291.8,913 303,903.2 315.6,893.4 327.8,884.6 339.9,876.1 353.5,867.3 
		365.6,858.4 378.7,850.5 391.8,841.6 404.9,834.6 418.4,826.6 431.5,819.6 445.5,811.7 458.6,805.6 486.6,792.5 501.5,785.5 
		515.5,779.5 545.4,766.9 576.3,755.6 591.2,750.5 606.2,745.8 637,736.5 667.8,727.6 699.6,719.7 729.9,712.7 763.6,706.6 
		795.8,701 829.4,695.9 861.6,692.6 895.3,689.8 928.4,687 962.1,686.1 994.3,685.1 1027.9,686.1 1061.1,687 1093.8,688.9 
		1126.9,692.6 1159.6,695.9 1193.2,700.1 1225.5,705.7 1258.2,711.7 1276.4,715.9 1296,720.6 1315.2,725.8 1333.4,730 1352,735.6 
		1369.8,740.7 1372.1,741.6 1373.1,741.6 1373.1,741.6 1374,741.6 1373.1,739.8 1372.1,738.8 1370.3,736.5 1365.1,730.9 1360,725.8 
			"/>
	<polygon class="st1" points="681.8,508.6 648.2,507.2 615,505.3 581.9,505.3 548.2,505.3 515.1,505.3 481.5,507.2 448.3,508.6 
		416.5,511.4 384.8,514.2 353.5,517.4 321.7,522.1 293.7,527.3 278.8,530.1 264.7,532.4 250.3,536.1 236.2,539.4 222.2,543.1 
		208.2,547.3 197,551.1 185.3,555.3 174.1,559.9 163.4,565.1 151.2,570.2 139.6,576.3 134.4,580 129.3,583.3 124.2,587 118.6,591.2 
		114.3,595 110.6,598.2 106.4,602.9 103.6,607.1 100.3,611.8 96.6,616 94.3,620.2 92.4,625.8 89.6,631.9 87.3,638.9 85.4,645.9 
		84.5,652.9 81.7,666.9 80.3,680 73.7,717.8 68.6,755.6 58.3,831.3 71.4,823.4 85.4,816.4 113.4,801.4 141.4,788.3 170.4,774.8 
		201.2,762.6 232,750.5 262.9,739.8 277.8,734.6 279.7,733.7 280.2,732.8 280.2,731.8 281.1,728.6 282,719.7 285.8,703.8 
		286.7,695.9 289,687.9 290.9,680 293.7,672 297,665 300.7,658 303,652 307.7,646.8 311,641.2 315.6,636.1 319.9,631.9 325,626.3 
		329.7,623 334.8,618.8 340.9,614.1 346.9,610.9 353.5,606.2 359.6,602.9 372.6,596.8 385.7,591.2 398.8,586.1 412.8,581.9 
		427.3,577.2 440.4,573 454.4,569.3 469.3,566 483.3,562.3 498.3,559.9 512.3,557.1 527.2,555.3 556.2,551.1 586.1,547.3 616,545 
		645.9,543.1 675.7,542.2 708.9,541.3 742.5,542.2 775.7,543.1 808.4,544.1 841.6,546.4 875.2,549.2 908.3,552.5 941,557.1 
		965.3,560.4 989.1,565.1 1037.7,574 1039.1,574 1039.1,574 1039.1,574 1039.1,574 1039.1,573 1037.7,572.1 1007.8,563.2 
		978.9,555.3 948,547.3 918.2,540.3 887.3,534.3 856.5,528.2 825.7,523.5 794.4,519.3 774.8,516.5 754.7,515.1 715,511.4 	"/>
</g>
</svg>
